<svg xmlns="http://www.w3.org/2000/svg" viewBox="664.2 690.3 251.8 198.5"><path d="M836.85,849.50 C828.60,847.94 822.81,845.90 810.83,840.32 L803.15,836.76 L800.14,838.90 C794.92,842.61 784.59,846.98 777.41,848.50 C757.05,852.81 735.23,847.11 721.44,833.86 C713.38,826.13 709.50,820.12 705.95,809.87 C700.24,793.35 701.29,777.29 709.18,761.00 C712.41,754.32 714.92,750.90 720.90,745.00 C734.15,731.92 749.46,726.33 769.48,727.24 C787.45,728.06 801.23,733.86 812.06,745.16 C817.56,750.90 824.29,763.83 825.92,771.80 C827.47,779.41 827.25,794.59 825.48,801.54 C823.49,809.38 818.01,820.47 813.57,825.66 C811.60,827.95 810.00,830.24 810.00,830.76 C810.00,832.23 826.66,839.62 836.07,842.33 C852.10,846.96 864.43,846.66 873.88,841.43 C878.94,838.62 880.00,838.45 880.00,840.45 C880.00,842.53 874.32,846.51 868.50,848.52 C861.75,850.85 846.49,851.32 836.85,849.50 Z M776.20,843.88 C782.36,842.58 792.41,838.20 795.96,835.27 L798.42,833.24 L792.25,830.13 C779.65,823.77 771.54,821.65 759.50,821.57 C750.04,821.51 747.80,821.82 743.51,823.80 C740.77,825.06 737.50,827.06 736.25,828.24 C734.54,829.84 733.69,830.09 732.83,829.23 C731.39,827.79 736.87,822.40 742.00,820.21 C757.60,813.57 774.42,814.79 795.43,824.09 C800.34,826.27 804.64,827.70 805.00,827.27 C815.54,814.65 820.00,802.42 820.00,786.18 C820.00,769.81 815.08,756.87 805.14,747.06 C798.25,740.25 791.57,736.58 781.41,733.98 C762.28,729.08 742.32,733.74 728.47,746.34 C721.77,752.43 716.98,759.78 713.19,769.76 C710.93,775.69 710.62,778.06 710.56,789.50 C710.51,800.59 710.84,803.48 712.81,809.19 C720.49,831.41 739.17,844.66 763.20,844.92 C767.44,844.96 773.29,844.50 776.20,843.88 Z" fill="#B98955"/></svg>
